<?xml version="1.0" standalone="no"?>
<!DOCTYPE svg PUBLIC "-//W3C//DTD SVG 20010904//EN"
 "http://www.w3.org/TR/2001/REC-SVG-20010904/DTD/svg10.dtd">
<svg version="1.0" xmlns="http://www.w3.org/2000/svg"
 width="414.000000pt" height="598.000000pt" viewBox="0 0 414.000000 598.000000"
 preserveAspectRatio="xMidYMid meet">

<g transform="translate(0.000000,598.000000) scale(0.100000,-0.100000)"
fill="#000000" stroke="none">
<path d="M1845 5964 c-589 -91 -1141 -567 -1479 -1276 -182 -381 -292 -782
-343 -1243 -15 -138 -15 -159 -1 -250 9 -58 27 -125 43 -159 22 -48 25 -64 16
-78 -9 -15 -8 -18 7 -18 18 0 52 -32 52 -49 0 -5 7 -12 15 -15 31 -11 47 -77
50 -194 2 -116 8 -142 24 -101 5 13 11 20 12 14 4 -25 6 -32 13 -57 4 -15 3
-34 -3 -45 -6 -12 -6 -34 -1 -59 9 -38 18 -111 19 -147 1 -10 6 -15 12 -12 6
4 8 12 6 19 -3 6 0 36 5 66 5 30 9 67 9 83 0 23 2 25 15 13 8 -8 14 -22 14
-30 0 -9 7 -16 15 -16 18 0 19 12 3 29 -17 16 -16 375 0 478 7 39 14 147 17
240 8 261 16 324 45 384 8 16 6 82 -4 97 -2 4 -1 26 4 47 5 22 6 44 1 50 -4 5
-6 42 -6 82 1 40 -2 70 -6 67 -7 -4 7 60 34 151 6 22 12 49 12 60 1 35 17 87
36 122 11 19 19 40 19 49 0 56 175 447 227 505 7 9 13 20 11 25 -4 15 33 64
48 64 8 0 17 7 21 16 4 12 14 14 34 10 18 -3 29 -1 29 5 0 11 26 8 64 -7 11
-4 16 -1 16 11 0 14 3 15 15 5 8 -6 18 -9 23 -6 5 3 22 -8 37 -25 19 -22 30
-28 35 -19 5 8 12 7 24 -6 14 -14 20 -14 26 -4 4 7 14 9 21 6 8 -4 6 -1 -4 7
-9 8 -17 19 -17 25 0 24 33 19 86 -13 32 -19 61 -35 66 -35 12 0 10 14 -4 29
-11 11 -10 12 2 6 8 -5 27 -10 43 -12 25 -3 28 -1 18 11 -16 20 0 27 23 11 11
-8 15 -19 10 -27 -4 -7 -4 -10 1 -6 4 4 16 3 27 -3 20 -11 39 1 51 35 7 19 8
19 23 -3 11 -15 22 -20 35 -16 10 4 19 2 19 -4 0 -6 7 -8 15 -5 9 4 15 0 15
-9 0 -9 4 -19 10 -22 6 -4 8 7 4 27 -4 27 -3 30 6 15 6 -9 16 -15 21 -11 5 3
9 2 8 -3 -7 -38 47 -40 87 -3 22 21 44 20 44 -2 0 -7 -6 -6 -15 2 -13 11 -15
8 -15 -14 0 -14 5 -26 10 -26 6 0 10 3 10 8 0 4 11 12 24 18 20 9 23 9 19 -2
-7 -19 12 -18 31 1 19 19 27 19 20 0 -5 -11 -2 -13 10 -9 12 4 16 0 16 -15 0
-12 5 -21 11 -21 6 0 8 9 4 21 -6 19 -5 20 15 9 18 -10 24 -8 36 7 13 18 18
31 15 46 -1 5 3 6 8 2 6 -3 17 8 26 25 8 16 18 30 20 30 9 0 -33 -77 -51 -95
-11 -11 -13 -20 -7 -26 7 -7 18 -1 33 18 13 15 20 20 17 11 -4 -13 -2 -15 11
-11 9 3 23 11 30 16 17 13 28 1 14 -16 -17 -20 -2 -29 22 -14 12 7 39 24 61
37 l40 23 -42 -37 c-24 -21 -43 -44 -43 -52 0 -22 13 -17 45 16 16 17 33 30
39 30 5 0 -2 -13 -17 -28 -15 -15 -27 -31 -27 -35 0 -12 28 -8 32 4 2 7 20 13
40 14 20 2 41 6 47 9 14 9 14 -7 0 -21 -6 -6 -8 -16 -5 -22 9 -15 39 -14 54 1
9 9 12 9 12 -1 0 -7 8 -11 18 -10 9 1 28 -3 42 -8 14 -6 35 -9 48 -7 12 3 22
-1 22 -7 0 -7 9 -9 26 -5 17 5 36 0 61 -15 28 -18 56 -23 134 -27 55 -3 99 -9
99 -13 0 -5 11 -9 24 -9 12 0 37 -5 55 -11 40 -14 69 -5 51 16 -10 12 -9 15 4
15 9 0 16 -4 16 -8 0 -4 55 -7 123 -7 67 1 109 -1 92 -2 -16 -2 -37 -6 -45
-10 -8 -3 -44 -5 -80 -5 -77 1 -68 -2 65 -19 55 -6 102 -15 105 -19 8 -11 103
-60 117 -60 7 0 10 -6 7 -14 -3 -8 3 -16 16 -19 12 -3 19 -10 15 -16 -3 -7 3
-11 15 -11 16 0 20 -5 16 -15 -3 -9 3 -19 15 -26 13 -7 19 -17 16 -29 -3 -10
0 -21 7 -23 14 -5 56 26 56 42 0 6 7 8 15 5 8 -4 15 -1 15 5 0 6 -5 11 -11 11
-8 0 -8 5 1 15 13 15 80 17 80 2 0 -5 5 -5 10 -2 6 3 10 2 10 -3 0 -4 8 -17
18 -28 9 -10 22 -30 28 -44 36 -79 35 -77 30 -52 -5 23 -4 23 16 6 23 -22 49
-79 43 -97 -3 -6 6 -25 20 -41 30 -35 34 -55 5 -26 -22 22 -49 28 -33 8 6 -7
16 -35 22 -63 7 -27 17 -55 23 -62 7 -9 7 -17 0 -25 -5 -7 -13 -24 -16 -38 -7
-24 -6 -24 8 -6 9 11 16 15 16 9 0 -7 -7 -18 -15 -27 -8 -8 -12 -22 -9 -30 3
-9 1 -16 -5 -16 -6 0 -11 -10 -11 -22 0 -34 -20 -101 -28 -93 -4 4 -12 -24
-18 -62 -6 -37 -14 -76 -18 -85 -6 -13 -3 -15 13 -11 14 3 21 13 21 29 0 13 6
24 13 24 17 0 17 -154 0 -171 -7 -7 -13 -21 -13 -31 0 -10 -4 -18 -10 -18 -5
0 -14 -9 -20 -21 -9 -16 -8 -25 6 -40 9 -10 23 -19 31 -19 8 0 11 -4 8 -10 -4
-6 5 -10 21 -10 22 0 24 -3 15 -14 -10 -11 -9 -21 3 -45 9 -16 16 -37 16 -46
0 -9 9 -33 19 -54 11 -21 20 -47 20 -57 1 -43 14 -84 25 -77 6 3 6 0 -1 -8
-15 -15 -17 -33 -4 -25 13 8 21 -46 27 -174 3 -61 9 -122 14 -136 13 -32 12
-43 0 -24 -14 23 -20 9 -26 -72 -5 -52 -3 -77 5 -82 19 -12 12 -29 -9 -23 -20
5 -29 -8 -10 -15 6 -2 11 -12 10 -23 -3 -100 -9 -154 -17 -175 -6 -14 -9 -54
-8 -88 2 -46 0 -61 -8 -53 -19 19 -22 13 -24 -46 -2 -31 -7 -59 -11 -62 -5 -3
-8 -19 -8 -36 1 -16 -4 -29 -10 -28 -6 1 -9 -10 -6 -28 3 -21 0 -29 -10 -29
-16 0 -18 -46 -3 -70 6 -9 4 -11 -5 -5 -10 6 -12 3 -8 -13 4 -13 -1 -31 -13
-46 -10 -13 -19 -31 -19 -39 0 -9 -7 -22 -15 -31 -9 -8 -11 -17 -6 -21 6 -3 8
-12 4 -20 -3 -11 -1 -13 10 -10 9 4 16 -1 20 -14 4 -18 1 -20 -19 -17 -27 5
-31 -8 -9 -30 19 -20 20 -41 1 -25 -10 9 -17 6 -29 -13 -22 -33 -31 -72 -18
-81 8 -4 8 -12 0 -26 -9 -17 -13 -18 -27 -8 -9 7 -3 -2 13 -20 22 -25 25 -32
11 -27 -31 11 -52 -25 -51 -87 0 -50 -1 -54 -22 -51 -23 2 -27 -4 -24 -43 1
-11 -3 -24 -8 -28 -6 -3 -11 -26 -11 -51 0 -25 -4 -43 -9 -40 -5 3 -8 21 -6
39 2 24 -2 37 -16 45 -16 10 -19 9 -19 -4 0 -11 -6 -14 -20 -9 -15 5 -18 3
-14 -9 8 -20 0 -20 -20 0 -15 14 -16 14 -16 0 0 -9 -5 -16 -10 -16 -6 0 -16
-11 -22 -25 -13 -29 -24 -32 -32 -7 -3 9 -19 32 -36 50 -16 18 -34 40 -40 50
-9 14 -10 13 -5 -8 l7 -25 -17 23 c-9 12 -13 27 -9 34 4 6 3 8 -4 4 -6 -3 -15
8 -22 29 -6 19 -17 38 -23 42 -7 5 -25 27 -40 51 -15 24 -36 46 -45 49 -9 4
-32 22 -51 42 -21 20 -37 29 -39 22 -3 -8 -14 -5 -37 9 -30 18 -35 19 -49 5
-14 -14 -16 -13 -26 5 -7 13 -21 20 -38 20 -16 0 -37 8 -48 18 -11 10 -24 17
-30 15 -7 -2 -24 7 -40 19 -60 48 -68 51 -29 9 l40 -42 -30 7 c-31 7 -88 48
-79 57 3 2 -7 14 -21 25 -30 24 -44 84 -25 106 6 9 9 20 5 27 -6 8 -9 8 -14 0
-4 -6 -23 -14 -42 -17 -19 -3 -45 -7 -58 -9 -13 -2 -55 -25 -93 -52 -109 -76
-122 -82 -182 -82 -30 1 -59 -2 -65 -5 -23 -15 -86 9 -147 55 -35 27 -75 54
-89 61 -29 13 -49 1 -22 -13 28 -16 20 -27 -18 -22 -28 3 -33 1 -29 -12 4 -9
19 -19 35 -22 36 -7 38 -23 4 -23 -14 0 -25 -4 -25 -9 0 -14 -44 -21 -52 -8
-5 9 -10 9 -20 -2 -10 -10 -10 -12 0 -7 6 4 12 4 12 -1 0 -11 -92 -62 -131
-73 -25 -8 -30 -6 -25 5 3 8 9 22 13 31 5 13 2 15 -18 9 -13 -4 -33 -15 -44
-24 -18 -15 -19 -15 -6 2 23 29 7 28 -25 -1 -59 -53 -63 -55 -57 -33 6 25 -4
27 -26 7 -28 -25 -105 -75 -110 -71 -2 3 2 11 9 20 9 11 9 15 1 15 -15 0 -45
-29 -60 -57 -6 -13 -18 -23 -26 -23 -8 0 -15 -4 -15 -9 0 -5 -12 -16 -26 -26
l-25 -16 16 25 c11 16 13 26 6 26 -21 0 -108 -155 -116 -205 0 -5 -6 -23 -13
-38 -7 -16 -10 -40 -7 -55 5 -24 4 -25 -4 -6 -16 36 -27 35 -40 -4 -28 -84
-32 -90 -52 -85 -20 6 -26 28 -9 38 6 3 10 11 10 17 0 7 -5 6 -15 -2 -8 -6
-19 -9 -25 -5 -5 3 -10 1 -10 -5 0 -6 -4 -9 -9 -6 -5 3 -12 -1 -15 -10 -9 -22
-26 -7 -26 23 0 21 -2 24 -15 13 -12 -10 -15 -10 -15 3 0 9 4 19 10 22 5 3 10
13 10 22 0 13 -3 13 -15 3 -8 -7 -15 -22 -15 -33 0 -11 -11 -30 -25 -43 l-25
-23 5 22 c4 16 -1 29 -14 41 -12 11 -21 24 -21 30 0 6 5 4 10 -4 18 -28 10 -1
-9 31 -12 20 -21 26 -24 17 -3 -7 -6 -4 -6 9 -1 12 -5 23 -10 25 -5 2 -11 21
-13 43 -4 34 -7 40 -25 37 -23 -3 -49 30 -38 48 3 5 1 11 -5 15 -5 3 -10 17
-10 30 0 13 -4 27 -10 30 -5 3 -10 13 -10 21 0 9 -7 22 -16 31 -8 9 -12 23 -9
31 3 9 3 13 -1 10 -9 -10 -37 20 -29 31 3 5 1 12 -3 15 -5 3 -7 31 -4 62 3 41
1 58 -9 65 -15 9 -15 10 -19 67 -1 20 -4 31 -7 25 -11 -29 -20 -9 -19 46 1 40
4 57 12 54 7 -2 15 0 19 6 3 6 -1 14 -9 17 -9 3 -16 12 -16 19 0 8 -9 16 -20
20 -12 4 -19 15 -20 33 -1 63 -13 142 -21 142 -5 0 -9 15 -9 33 0 18 -4 37
-10 43 -5 5 -10 24 -12 43 -1 18 -8 36 -16 38 -7 3 -11 18 -10 37 2 17 -1 32
-7 34 -12 4 -25 -55 -29 -125 -1 -29 -7 -58 -14 -65 -7 -7 -12 -20 -12 -30 0
-10 -4 -18 -9 -18 -5 0 -15 -21 -24 -46 -14 -44 -14 -45 7 -43 35 2 46 0 46
-13 0 -6 -3 -8 -6 -5 -4 3 -16 0 -28 -8 -11 -8 -28 -15 -38 -15 -10 0 -18 -6
-18 -13 0 -9 11 -12 36 -11 22 2 42 -3 51 -11 8 -8 11 -15 6 -15 -5 0 -15 6
-21 12 -17 17 -58 -31 -67 -79 -6 -34 7 -59 26 -47 10 6 32 -24 25 -35 -3 -5
-1 -11 6 -13 6 -2 8 -10 4 -16 -5 -9 -13 -9 -27 -2 -11 7 -19 7 -19 1 0 -5 5
-11 12 -13 8 -3 13 -27 13 -64 1 -32 6 -69 13 -81 7 -12 12 -31 12 -42 0 -11
8 -25 18 -31 16 -10 16 -10 0 -20 -10 -6 -18 -21 -18 -33 1 -20 3 -19 29 11
28 32 48 34 31 2 -5 -10 -7 -20 -4 -22 2 -3 6 -42 8 -87 4 -77 7 -87 66 -198
206 -388 472 -699 780 -908 99 -68 290 -162 405 -201 279 -93 600 -98 887 -13
126 37 334 136 448 214 317 216 607 560 803 952 70 139 108 232 109 264 1 16
6 33 13 37 7 4 21 32 33 62 21 58 19 108 -4 117 -24 9 -17 89 11 138 18 30 24
52 20 72 -4 20 -3 23 3 9 7 -17 10 -16 21 13 13 30 12 54 -7 146 -3 17 -6 41
-5 55 0 14 0 36 1 50 3 162 1 185 -12 167 -11 -15 -15 -15 -19 -3 -3 8 6 26
21 41 25 25 25 28 9 40 -9 7 -17 18 -17 26 0 12 2 12 9 0 15 -23 23 23 13 66
-13 50 -14 161 -2 168 6 4 10 -2 10 -12 1 -17 1 -17 14 -1 12 17 14 16 24 -5
l11 -22 0 23 c1 12 5 22 9 22 13 0 46 81 43 105 -3 29 8 65 19 65 6 0 10 -8
10 -17 0 -26 7 -12 14 31 7 36 6 38 -8 27 -9 -8 -16 -9 -16 -3 0 5 6 12 13 15
7 3 13 28 15 63 3 63 18 114 34 114 11 0 6 62 -12 134 -10 38 -10 50 0 56 27
17 -33 442 -101 712 -115 459 -302 864 -551 1195 -85 113 -272 310 -373 393
-246 201 -531 333 -809 375 -125 18 -319 18 -441 -1z m-690 -1044 c3 -5 1 -10
-4 -10 -6 0 -11 5 -11 10 0 6 2 10 4 10 3 0 8 -4 11 -10z m599 -14 c-3 -8 -13
-17 -22 -21 -13 -5 -13 -2 3 15 21 24 26 25 19 6z m331 -6 c-10 -11 -22 -20
-26 -20 -5 0 -1 9 8 20 10 11 22 20 27 20 5 0 1 -9 -9 -20z m-890 0 c3 -5 2
-10 -4 -10 -5 0 -13 5 -16 10 -3 6 -2 10 4 10 5 0 13 -4 16 -10z m-918 -2437
c-3 -10 -5 -4 -5 12 0 17 2 24 5 18 2 -7 2 -21 0 -30z m34 -396 c-13 -13 -15
11 -4 40 7 16 8 15 11 -6 2 -13 -1 -28 -7 -34z m-35 -15 c-18 -16 -18 -16 -6
6 6 13 14 21 18 18 3 -4 -2 -14 -12 -24z m3659 -82 c3 -5 1 -10 -4 -10 -6 0
-11 5 -11 10 0 6 2 10 4 10 3 0 8 -4 11 -10z m-3630 -59 c3 -5 -2 -16 -10 -24
-8 -9 -10 -17 -5 -19 5 -2 12 -19 15 -38 5 -31 4 -33 -7 -16 -7 10 -21 26 -30
35 -22 19 -23 35 -2 55 18 18 30 20 39 7z m17 -23 c-7 -7 -12 -8 -12 -2 0 14
12 26 19 19 2 -3 -1 -11 -7 -17z m3335 -130 c-3 -8 -6 -5 -6 6 -1 11 2 17 5
13 3 -3 4 -12 1 -19z m-3352 -27 c3 -5 1 -12 -5 -16 -5 -3 -10 1 -10 9 0 18 6
21 15 7z m2285 -136 c11 -13 10 -14 -4 -9 -9 3 -16 10 -16 15 0 13 6 11 20 -6z
m-896 -42 c-9 -7 -21 -10 -26 -7 -14 9 1 23 23 21 19 -1 19 -2 3 -14z m-1202
-25 c-7 -7 -12 -8 -12 -2 0 14 12 26 19 19 2 -3 -1 -11 -7 -17z m3217 -113 c0
-5 -6 1 -14 15 -8 14 -14 30 -14 35 0 6 6 -1 14 -15 8 -14 14 -29 14 -35z
m-3072 -197 c-3 -8 -6 -5 -6 6 -1 11 2 17 5 13 3 -3 4 -12 1 -19z m988 -83
c39 -2 80 -7 92 -10 12 -3 25 -1 28 5 8 13 51 13 76 -1 11 -5 70 -12 132 -14
62 -1 137 -5 167 -8 30 -3 95 -9 145 -12 49 -4 95 -11 102 -17 7 -5 17 -7 23
-3 5 3 10 1 10 -4 0 -6 7 -11 15 -11 8 0 15 -8 15 -18 0 -17 6 -17 103 -7 95
11 103 10 118 -7 18 -20 49 -25 49 -7 0 16 26 39 44 39 9 0 16 -4 16 -10 0 -5
14 -10 30 -10 29 0 40 13 20 25 -5 3 -10 12 -9 18 0 9 2 9 6 0 2 -7 11 -13 19
-13 8 0 14 -5 14 -11 0 -5 10 -9 23 -7 14 2 21 -2 19 -11 -2 -7 5 -22 14 -32
16 -18 16 -19 -4 -19 -13 0 -22 6 -22 15 0 8 -5 15 -10 15 -13 0 2 -31 24 -50
9 -7 16 -21 16 -30 0 -10 3 -20 8 -23 4 -2 1 -2 -5 -1 -7 2 -13 -3 -13 -10 0
-9 -7 -12 -21 -9 -11 3 -18 11 -15 19 7 17 -8 26 -29 18 -9 -4 -12 -10 -7 -13
11 -7 15 -24 13 -65 l-1 -29 -22 29 c-50 65 -68 73 -37 17 12 -21 26 -44 31
-51 6 -7 7 -16 3 -20 -4 -4 -17 6 -29 22 -36 49 -58 72 -53 56 2 -8 7 -25 11
-37 6 -18 4 -22 -8 -17 -9 3 -16 12 -16 19 0 8 -20 30 -44 49 -42 35 -63 46
-51 26 3 -5 1 -10 -4 -10 -6 0 -11 7 -11 15 0 8 -2 15 -4 15 -2 0 -12 3 -22 7
-16 6 -16 4 2 -20 10 -14 24 -27 30 -27 11 0 64 -58 64 -71 0 -11 -34 -5 -43
9 -4 6 -14 12 -22 12 -8 0 -19 9 -25 20 -6 11 -17 20 -25 20 -8 0 -15 6 -15
13 0 7 -7 4 -15 -7 -8 -11 -15 -14 -15 -8 0 7 -4 12 -9 12 -10 0 -8 -47 4 -73
4 -10 5 -21 1 -24 -3 -3 -1 -12 5 -20 9 -9 8 -13 0 -13 -6 0 -11 5 -11 11 0 6
-6 9 -13 6 -7 -3 -19 4 -25 14 -7 10 -8 19 -3 19 5 0 11 -6 14 -12 2 -7 7 -11
10 -8 3 3 -3 21 -13 40 -18 33 -19 33 -20 10 -1 -25 -1 -25 -15 5 -13 26 -14
26 -9 5 l5 -25 -20 25 c-11 14 -21 28 -21 32 0 5 -10 6 -22 4 -17 -2 -24 -11
-26 -31 l-4 -28 -29 32 c-28 31 -29 31 -29 9 0 -18 -2 -20 -10 -8 -7 11 -10 7
-10 -17 0 -17 5 -35 10 -38 6 -3 10 -11 10 -16 0 -6 -7 -4 -15 5 -8 8 -15 20
-15 26 0 6 -4 9 -9 6 -5 -4 -15 7 -23 24 -7 16 -16 30 -19 30 -4 0 -10 -19
-14 -42 l-8 -43 -6 35 c-8 50 -31 50 -31 1 0 -22 -4 -42 -8 -45 -5 -3 -7 17
-6 44 3 46 2 50 -19 46 -12 -1 -22 -9 -22 -17 0 -8 6 -13 13 -11 6 1 12 -2 12
-8 0 -5 -3 -10 -8 -10 -4 0 -6 -21 -5 -47 l1 -48 -7 45 c-5 31 -9 39 -12 25
-5 -16 -6 -16 -6 5 0 52 -3 62 -17 57 -7 -3 -19 0 -25 6 -8 8 -11 5 -12 -13 0
-23 -1 -23 -8 -5 -5 11 -6 24 -3 29 3 5 0 6 -6 2 -7 -4 -12 -17 -12 -29 0 -16
-3 -18 -12 -9 -17 17 -38 15 -38 -3 0 -8 -4 -15 -8 -15 -5 0 -7 15 -6 33 2 17
1 23 -2 12 -3 -11 -10 -24 -15 -30 -5 -5 -9 -18 -9 -30 0 -11 -5 -27 -11 -35
-8 -11 -9 -4 -6 28 5 41 -5 57 -17 26 -4 -10 -13 -13 -27 -9 -13 4 -25 2 -29
-5 -4 -7 -13 -9 -19 -6 -6 4 -8 12 -5 18 4 6 2 8 -4 4 -5 -3 -12 -3 -15 1 -2
5 -2 3 -1 -4 2 -6 -4 -17 -12 -23 -8 -7 -14 -18 -14 -25 0 -13 -35 -28 -59
-25 -8 1 -10 -4 -6 -12 6 -9 5 -10 -4 -2 -8 7 -8 17 1 37 7 15 16 27 21 27 4
0 7 8 7 18 0 13 -9 8 -35 -20 -40 -44 -51 -39 -23 10 17 31 17 34 2 22 -9 -8
-24 -26 -33 -40 -9 -14 -23 -25 -31 -25 -10 0 -14 -8 -13 -25 2 -22 1 -23 -8
-7 -6 10 -8 25 -5 33 8 20 0 18 -23 -7 l-20 -21 5 23 c5 19 4 21 -5 9 -14 -19
-14 0 -1 34 6 18 6 26 -1 26 -6 0 -13 -9 -16 -20 -3 -11 -10 -17 -15 -14 -5 3
-16 -2 -23 -12 -8 -11 -15 -14 -15 -7 0 6 4 15 10 18 5 3 8 16 6 28 -2 12 1
28 6 35 7 8 7 12 0 12 -6 0 -15 -7 -20 -15 -4 -9 -18 -17 -29 -19 -19 -4 -21
-1 -18 40 1 24 0 44 -4 44 -3 0 -30 -21 -59 -46 -28 -25 -52 -42 -52 -37 0 5
14 30 30 56 17 26 30 59 30 72 0 13 5 27 10 30 6 3 10 1 10 -6 0 -7 3 -10 6
-7 3 4 1 15 -5 26 -7 13 -7 22 2 31 9 9 9 14 -1 20 -10 6 -7 12 12 24 14 10
32 17 41 17 8 0 15 5 15 11 0 5 4 8 9 4 5 -3 12 -1 16 5 4 6 26 8 53 4 26 -3
79 -7 117 -9z m-593 -67 c2 -21 1 -35 -3 -30 -8 8 -12 37 -9 67 2 26 8 10 12
-37z m-15 -90 c-3 -8 -6 -5 -6 6 -1 11 2 17 5 13 3 -3 4 -12 1 -19z m1545
-150 c43 -48 46 -53 19 -38 -13 7 -21 7 -24 0 -3 -6 -4 -5 -3 2 2 7 -7 28 -21
46 -34 46 -16 40 29 -10z m328 2 c12 -23 12 -24 -3 -11 -10 7 -17 20 -17 29 0
18 3 16 20 -18z m-967 -20 c-3 -12 -8 -19 -11 -16 -5 6 5 36 12 36 2 0 2 -9
-1 -20z m277 -14 c0 -3 -4 -8 -10 -11 -5 -3 -10 -1 -10 4 0 6 5 11 10 11 6 0
10 -2 10 -4z m247 -26 c0 -19 -4 -27 -10 -21 -5 5 -6 18 -2 30 9 29 12 26 12
-9z m93 -48 c0 -7 -4 -10 -10 -7 -5 3 -10 16 -10 28 0 18 2 19 10 7 5 -8 10
-21 10 -28z m-1013 -4 c-3 -8 -6 -5 -6 6 -1 11 2 17 5 13 3 -3 4 -12 1 -19z
m60 0 c-3 -8 -6 -5 -6 6 -1 11 2 17 5 13 3 -3 4 -12 1 -19z m1053 -13 c0 -5
-5 -3 -10 5 -5 8 -10 20 -10 25 0 6 5 3 10 -5 5 -8 10 -19 10 -25z m-1080 11
c0 -3 -4 -8 -10 -11 -5 -3 -10 -1 -10 4 0 6 5 11 10 11 6 0 10 -2 10 -4z m531
-39 c-10 -9 -11 -8 -5 6 3 10 9 15 12 12 3 -3 0 -11 -7 -18z m589 -17 c6 -11
8 -20 6 -20 -3 0 -10 9 -16 20 -6 11 -8 20 -6 20 3 0 10 -9 16 -20z m-433
-242 c-3 -7 -5 -2 -5 12 0 14 2 19 5 13 2 -7 2 -19 0 -25z m-347 -22 c0 -3 -4
-8 -10 -11 -5 -3 -10 -1 -10 4 0 6 5 11 10 11 6 0 10 -2 10 -4z"/>
<path d="M2850 962 c0 -4 10 -13 23 -21 22 -14 22 -14 3 8 -20 22 -26 25 -26
13z"/>
<path d="M1689 893 c-13 -16 -12 -17 4 -4 16 13 21 21 13 21 -2 0 -10 -8 -17
-17z"/>
<path d="M1590 838 c0 -19 2 -20 10 -8 13 19 13 30 0 30 -5 0 -10 -10 -10 -22z"/>
<path d="M1722 848 c-14 -14 -16 -28 -3 -28 5 0 11 9 14 20 6 23 5 24 -11 8z"/>
<path d="M1130 4880 c0 -5 5 -10 11 -10 6 0 20 -10 30 -22 l20 -23 -11 22
c-12 25 -50 50 -50 33z"/>
<path d="M3614 4278 c3 -7 9 -21 12 -30 4 -10 11 -18 16 -18 5 0 7 6 4 13 -3
6 -9 20 -12 30 -4 9 -11 17 -16 17 -5 0 -7 -6 -4 -12z"/>
<path d="M1180 3424 c0 -10 7 -13 25 -8 17 4 33 -1 51 -15 15 -12 22 -21 17
-21 -5 0 -14 5 -19 10 -6 6 -32 13 -57 15 -26 3 -61 7 -77 10 -29 5 -71 -17
-52 -28 4 -2 0 -2 -8 1 -38 11 -45 7 -42 -25 1 -25 -2 -33 -15 -33 -13 0 -14
3 -6 11 6 6 9 17 6 24 -3 10 -8 10 -22 -3 -16 -16 -16 -18 1 -36 18 -20 16
-36 -6 -36 -8 0 -13 8 -12 18 0 9 -3 16 -9 16 -5 -1 -34 -5 -63 -8 -57 -7 -66
7 -12 19 17 4 28 11 24 16 -8 14 -46 10 -68 -6 -11 -8 -29 -12 -42 -9 -15 4
-33 -1 -50 -15 -15 -12 -21 -21 -13 -21 14 -1 -17 -32 -61 -63 -27 -19 -17
-44 21 -52 16 -4 27 -10 24 -15 -6 -10 19 -20 51 -20 14 0 34 -5 46 -11 11 -6
22 -8 25 -5 4 3 -8 11 -25 17 -18 6 -32 15 -32 20 0 12 27 11 35 -1 3 -5 16
-10 28 -10 17 0 19 2 7 10 -24 15 -4 22 34 12 20 -6 38 -7 41 -2 3 5 -7 11
-22 13 -26 4 -26 4 5 6 17 0 32 -3 32 -8 0 -5 23 -9 50 -9 28 0 50 4 50 9 0 4
-19 17 -42 29 -35 16 -37 19 -14 14 17 -3 32 0 36 7 10 15 31 2 24 -15 -7 -18
16 -24 92 -24 34 0 71 -3 83 -7 16 -5 20 -3 15 9 -8 20 -4 20 46 0 30 -12 57
-15 98 -10 54 5 56 5 32 -9 l-25 -15 30 1 c52 2 55 1 46 -23 -12 -35 -4 -50
19 -35 15 9 22 9 32 -1 9 -9 7 -12 -12 -12 -104 -1 -210 -13 -270 -29 -39 -11
-77 -18 -84 -15 -8 3 -31 -4 -52 -15 -21 -12 -45 -21 -53 -21 -18 0 -116 -56
-162 -93 -30 -23 -36 -34 -34 -59 2 -28 6 -31 39 -33 21 -1 32 1 26 5 -9 6 -9
9 0 15 7 4 16 1 21 -6 13 -21 11 -27 -11 -39 -14 -8 -19 -17 -15 -30 3 -10 -1
-25 -10 -33 -20 -20 -19 -22 7 -24 13 -1 24 -7 26 -13 2 -5 17 -10 32 -10 17
0 33 -7 39 -17 6 -12 23 -17 53 -18 24 -1 50 -5 56 -9 7 -4 17 -4 22 -1 6 3
10 1 10 -5 0 -6 5 -8 11 -4 7 4 2 13 -15 23 -14 8 -26 19 -26 24 0 4 -12 12
-26 18 -25 9 -25 11 -10 22 14 10 15 18 7 39 -8 22 -6 32 17 60 27 36 109 80
99 54 -3 -8 0 -19 6 -25 8 -8 8 -11 0 -11 -23 0 7 -65 48 -104 l41 -39 66 7
c36 4 70 9 75 13 19 11 67 98 67 120 0 27 14 29 54 8 15 -8 32 -15 36 -15 5 0
21 -5 37 -11 15 -6 44 -12 63 -13 19 -1 44 -6 55 -11 17 -8 18 -7 7 7 -7 9
-27 22 -45 28 -18 7 -58 33 -89 57 -31 24 -59 39 -62 34 -4 -5 0 -12 6 -14 10
-4 10 -6 1 -6 -21 -2 -35 36 -23 59 6 11 16 20 22 20 5 0 8 -9 5 -20 -4 -15 0
-20 14 -20 11 0 38 -9 61 -21 34 -17 40 -18 35 -5 -5 12 0 16 17 16 27 0 53
25 36 35 -5 3 -10 1 -10 -5 0 -6 -5 -8 -10 -5 -8 5 -7 12 2 22 11 14 10 15
-10 9 -16 -5 -22 -3 -22 7 0 22 26 16 62 -15 34 -29 58 -36 58 -17 0 6 -7 8
-16 5 -10 -4 -14 -1 -11 6 2 7 13 11 23 10 15 -3 11 5 -15 32 -19 20 -40 36
-47 36 -7 0 -14 3 -16 8 -4 9 -48 35 -106 64 -32 15 -40 24 -32 33 8 9 6 14
-5 19 -9 3 -15 0 -15 -9 0 -26 -16 -16 -67 43 -62 72 -72 88 -50 79 21 -8 22
2 1 31 -9 14 -22 21 -31 18 -8 -3 -11 -1 -8 4 3 6 -1 20 -9 32 -9 12 -16 17
-16 10 0 -7 -4 -10 -10 -7 -6 4 -7 -1 -3 -11 4 -11 8 -13 11 -6 2 7 8 9 13 6
6 -3 5 -11 -2 -20 -10 -13 -20 -7 -60 36 -27 27 -53 50 -59 50 -6 0 -8 -4 -5
-10 7 -12 -8 -14 -19 -3 -14 14 -66 11 -66 -3z m115 -110 c11 -8 16 -14 12
-14 -14 0 -77 29 -77 35 0 9 41 -5 65 -21z m-505 -4 c-20 -13 -33 -13 -25 0 3
6 14 10 23 10 15 0 15 -2 2 -10z m153 -17 c-7 -2 -19 -2 -25 0 -7 3 -2 5 12 5
14 0 19 -2 13 -5z m92 -23 c4 -6 -14 -10 -47 -9 -39 0 -48 3 -33 9 28 12 73
12 80 0z m72 -46 c-3 -3 -12 -4 -19 -1 -8 3 -5 6 6 6 11 1 17 -2 13 -5z m555
-176 c-9 -9 -15 -9 -24 0 -9 9 -7 12 12 12 19 0 21 -3 12 -12z m-249 -23 c8
-4 18 -13 21 -22 5 -11 10 -12 19 -5 15 13 79 1 75 -13 -2 -5 -6 -9 -10 -7 -5
1 -8 -5 -8 -13 0 -18 0 -18 -75 -1 -95 23 -176 16 -280 -24 -49 -19 -92 -36
-95 -39 -3 -4 -15 -12 -27 -19 -20 -11 -23 -10 -24 5 -1 16 -2 16 -6 1 -2 -9
-10 -19 -18 -22 -27 -10 -24 10 5 46 37 45 145 98 240 117 45 10 153 7 183 -4z
m-63 -120 c0 24 6 17 14 -20 4 -16 4 -27 0 -22 -4 4 -16 0 -26 -10 -26 -24
-38 -1 -23 46 8 23 9 23 22 6 13 -18 13 -18 13 0z m-73 -42 c-3 -10 -5 -4 -5
12 0 17 2 24 5 18 2 -7 2 -21 0 -30z"/>
<path d="M1340 3420 c8 -5 20 -10 25 -10 6 0 3 5 -5 10 -8 5 -19 10 -25 10 -5
0 -3 -5 5 -10z"/>
<path d="M3200 3400 c8 -5 22 -10 30 -10 13 0 13 1 0 10 -8 5 -22 10 -30 10
-13 0 -13 -1 0 -10z"/>
<path d="M2935 3373 c-5 -12 -9 -14 -12 -6 -3 9 -22 11 -66 6 -49 -5 -71 -13
-106 -40 -24 -18 -51 -33 -61 -33 -9 0 -25 -7 -36 -15 -18 -15 -17 -16 16 -10
26 5 31 4 20 -4 -8 -6 -30 -11 -48 -11 -18 0 -31 -3 -28 -8 2 -4 -13 -16 -35
-26 -25 -12 -39 -26 -39 -38 0 -10 -7 -21 -15 -24 -8 -4 -15 -12 -15 -20 0 -8
-4 -14 -10 -14 -5 0 -18 -8 -28 -17 -10 -10 -30 -27 -44 -38 -14 -11 -39 -49
-57 -85 -33 -68 -43 -147 -26 -219 7 -33 8 -34 21 -16 8 10 14 27 14 37 0 10
14 33 31 51 16 18 38 40 46 50 9 9 23 17 31 17 8 0 30 11 48 25 29 23 33 23
45 8 10 -12 10 -15 2 -9 -7 4 -13 2 -13 -3 0 -6 -7 -11 -16 -11 -8 0 -12 -4
-9 -10 3 -5 1 -10 -5 -10 -15 0 -80 -61 -80 -75 0 -17 52 -38 82 -33 32 4 28
22 -7 28 -36 6 -30 26 8 22 21 -2 27 2 27 18 0 15 7 20 24 20 14 0 37 11 52
25 35 32 54 32 54 0 0 -58 43 -125 86 -132 101 -18 130 -15 163 12 39 34 61
74 61 115 0 19 4 29 10 25 6 -4 8 -11 5 -16 -4 -5 5 -9 19 -9 29 0 36 -17 32
-75 -1 -26 3 -44 13 -51 22 -17 5 -32 -44 -40 -25 -3 -45 -10 -45 -14 0 -4
-12 -7 -27 -8 -59 -1 -97 -10 -101 -21 -3 -8 -10 -5 -19 9 -9 13 -21 19 -31
15 -8 -3 -19 0 -24 7 -5 8 -6 -3 -4 -26 6 -48 10 -52 41 -38 18 8 26 8 31 0 5
-7 11 -5 20 7 11 15 16 16 29 5 14 -11 18 -11 25 0 6 10 14 7 34 -13 24 -24
26 -25 26 -6 0 11 5 17 10 14 6 -3 10 1 10 10 0 10 4 13 13 8 6 -4 26 -8 44
-9 22 0 30 3 26 13 -3 7 0 13 6 13 6 0 11 -4 11 -9 0 -6 12 -6 31 -1 23 7 37
5 55 -7 22 -14 29 -11 25 10 -1 4 12 13 29 18 16 6 30 15 30 20 0 5 9 9 20 9
11 0 20 6 20 13 0 9 2 9 8 -1 11 -17 62 1 62 23 0 8 7 15 15 15 14 0 41 38 37
52 -1 4 7 12 18 18 11 6 20 17 20 25 0 8 5 15 10 15 6 0 10 6 10 13 0 7 10 17
22 22 15 7 25 25 33 61 6 27 9 56 7 62 -2 7 1 12 6 12 6 0 8 9 5 20 -3 11 0
20 6 20 18 0 13 18 -6 23 -15 4 -15 6 5 12 17 6 22 15 21 39 0 17 -3 25 -6 19
-6 -15 -33 -17 -33 -3 0 6 -10 10 -22 10 -23 1 -23 1 -3 16 14 12 16 18 7 21
-7 3 -19 11 -26 19 -8 8 -19 14 -25 14 -6 0 -11 5 -11 12 0 6 -3 8 -7 5 -3 -4
-21 4 -39 18 -18 14 -41 25 -51 25 -10 0 -26 9 -36 20 -22 26 -41 26 -34 -1 5
-18 2 -20 -19 -16 -13 2 -24 0 -24 -4 0 -15 -34 -10 -60 8 -25 18 -113 36
-104 21 6 -10 -41 0 -68 13 -9 5 -37 9 -61 9 -33 0 -47 -5 -52 -17z m-285
-147 c0 -2 -14 -9 -31 -15 -27 -9 -30 -9 -19 4 11 13 50 22 50 11z m-82 -46
c-14 -22 -24 -19 -15 5 4 8 11 15 17 15 6 0 6 -7 -2 -20z m542 -1 c0 -6 9 -9
20 -6 13 3 20 0 20 -8 0 -9 17 -16 45 -21 25 -3 42 -11 39 -16 -3 -5 2 -16 12
-24 13 -10 15 -17 7 -20 -7 -3 -9 -12 -6 -20 3 -9 -2 -14 -16 -14 -12 0 -21
-5 -21 -11 0 -5 -4 -8 -9 -5 -5 4 -31 8 -58 11 -48 5 -149 32 -168 45 -5 4
-27 10 -47 14 -41 8 -44 12 -24 39 15 19 66 30 133 28 23 0 45 4 48 9 8 14 25
13 25 -1z m193 -116 c-7 -2 -21 -2 -30 0 -10 3 -4 5 12 5 17 0 24 -2 18 -5z
m-418 -19 c0 -5 -9 -10 -19 -12 -22 -3 -127 -28 -163 -38 -33 -9 -29 14 5 28
70 28 177 42 177 22z m60 -4 c3 -5 -3 -10 -14 -10 -12 0 -21 5 -21 10 0 6 6
10 14 10 8 0 18 -4 21 -10z m74 -16 c2 -2 -4 -7 -13 -10 -11 -4 -24 0 -34 10
-16 16 -15 17 13 10 17 -4 32 -8 34 -10z m55 -29 c26 -20 0 -20 -34 0 -22 13
-23 14 -5 14 11 0 29 -6 39 -14z m-434 -14 c-14 -27 -30 -35 -43 -22 -8 8 -7
11 5 11 8 0 21 7 28 15 17 21 23 19 10 -4z m210 -46 c7 -9 11 -16 9 -18 -58
-33 -59 -33 -59 -4 0 39 27 50 50 22z m-80 -26 c0 -11 -4 -18 -10 -14 -5 3 -7
12 -3 20 7 21 13 19 13 -6z"/>
<path d="M1476 3336 c3 -9 11 -16 16 -16 13 0 5 23 -10 28 -7 2 -10 -2 -6 -12z"/>
<path d="M1506 3218 c10 -13 20 -25 21 -27 2 -3 2 8 1 22 -2 19 -8 27 -22 27
-19 0 -19 0 0 -22z"/>
<path d="M1601 3204 c0 -11 3 -14 6 -6 3 7 2 16 -1 19 -3 4 -6 -2 -5 -13z"/>
<path d="M512 3130 c0 -14 2 -19 5 -12 2 6 2 18 0 25 -3 6 -5 1 -5 -13z"/>
<path d="M860 3120 c20 -13 43 -13 35 0 -3 6 -16 10 -28 10 -18 0 -19 -2 -7
-10z"/>
<path d="M690 3081 c0 -16 48 -25 73 -13 21 10 20 11 -10 11 -17 1 -38 4 -47
7 -9 3 -16 1 -16 -5z"/>
<path d="M655 3030 c11 -5 31 -9 45 -9 20 -1 22 1 10 9 -8 5 -28 9 -45 9 -26
0 -27 -2 -10 -9z"/>
<path d="M778 3023 c6 -2 18 -2 25 0 6 3 1 5 -13 5 -14 0 -19 -2 -12 -5z"/>
<path d="M1715 2780 c4 -6 11 -8 16 -5 14 9 11 15 -7 15 -8 0 -12 -5 -9 -10z"/>
<path d="M2570 2786 c0 -2 11 -6 25 -8 13 -3 22 -1 19 3 -5 9 -44 13 -44 5z"/>
<path d="M1440 2667 c0 -14 -4 -16 -19 -8 -10 6 -21 7 -25 4 -9 -10 14 -33 34
-33 21 0 35 29 20 44 -7 7 -10 5 -10 -7z"/>
<path d="M1177 2663 c-4 -3 -7 -16 -6 -27 0 -12 3 -15 6 -8 6 15 83 16 83 1 0
-6 8 -9 18 -7 29 6 20 33 -10 31 -16 -1 -28 2 -28 8 0 10 -53 13 -63 2z"/>
<path d="M1316 2651 c-6 -9 -2 -39 7 -47 4 -4 7 0 7 10 0 9 6 16 13 14 12 -3
17 3 17 20 0 10 -38 13 -44 3z"/>
<path d="M3700 2169 c0 -5 5 -7 10 -4 6 3 10 8 10 11 0 2 -4 4 -10 4 -5 0 -10
-5 -10 -11z"/>
<path d="M2666 2072 c-2 -4 -1 -14 4 -22 7 -11 12 -12 21 -3 6 6 8 16 5 22 -8
13 -23 14 -30 3z"/>
<path d="M1668 1623 c7 -3 16 -2 19 1 4 3 -2 6 -13 5 -11 0 -14 -3 -6 -6z"/>
<path d="M1365 1611 c-3 -6 0 -9 7 -6 8 3 22 -1 32 -8 13 -9 14 -14 5 -14 -19
0 -89 -43 -89 -54 0 -13 16 -11 29 5 10 11 103 61 151 80 8 3 -3 3 -25 -1 -53
-7 -67 -7 -86 1 -10 4 -20 3 -24 -3z"/>
<path d="M1615 1595 c-17 -13 -25 -24 -19 -25 13 0 59 38 53 45 -3 2 -18 -7
-34 -20z"/>
<path d="M2913 1553 c9 -9 20 -13 24 -9 4 4 1 11 -7 16 -25 16 -35 11 -17 -7z"/>
<path d="M1307 1553 c-4 -3 -7 -11 -7 -17 0 -6 5 -5 12 2 6 6 9 14 7 17 -3 3
-9 2 -12 -2z"/>
<path d="M3367 1518 c-6 -23 -1 -38 13 -38 12 0 20 28 14 45 -9 22 -21 18 -27
-7z"/>
<path d="M637 1343 c-4 -3 -7 -11 -7 -17 0 -6 5 -5 12 2 6 6 9 14 7 17 -3 3
-9 2 -12 -2z"/>
<path d="M766 1164 c-10 -25 -7 -34 9 -28 8 4 15 15 15 25 0 23 -16 25 -24 3z"/>
</g>
</svg>
